<?xml version="1.0" standalone="no"?>
<!DOCTYPE svg PUBLIC "-//W3C//DTD SVG 20010904//EN"
 "http://www.w3.org/TR/2001/REC-SVG-20010904/DTD/svg10.dtd">
<svg version="1.0" xmlns="http://www.w3.org/2000/svg"
 width="96.000000pt" height="96.000000pt" viewBox="0 0 96.000000 96.000000"
 preserveAspectRatio="xMidYMid meet">

<g transform="translate(0.000000,96.000000) scale(0.100000,-0.100000)"
fill="#ff9100" stroke="none">
<path d="M619 888 c-22 -23 -47 -55 -56 -71 l-15 -29 -18 29 c-36 59 -74 77
-177 81 l-93 4 0 -31 c0 -17 6 -46 14 -64 12 -31 69 -88 98 -100 10 -5 9 -8
-4 -17 -18 -11 -25 -40 -10 -40 4 0 21 9 37 20 41 27 125 28 125 2 0 -22 30
-52 52 -52 18 0 48 31 48 51 0 8 4 19 8 26 12 20 101 -27 145 -77 50 -54 69
-99 76 -180 8 -85 26 -79 25 8 0 52 -6 78 -26 117 -34 64 -100 128 -160 155
-27 12 -48 23 -48 26 0 9 58 90 74 103 34 29 10 81 -38 81 -9 0 -34 -19 -57
-42z m81 1 c0 -6 -13 -27 -30 -45 -36 -42 -65 -97 -75 -144 -10 -46 -13 -50
-31 -43 -17 6 -12 63 11 120 26 63 125 151 125 112z m-250 -34 c33 -17 70 -61
70 -83 0 -12 -5 -11 -22 6 -29 26 -70 42 -109 42 -42 0 -32 -23 12 -31 42 -7
68 -20 94 -49 l20 -23 -63 5 c-41 3 -71 11 -90 25 -34 25 -72 80 -72 104 0 17
8 19 65 19 39 0 78 -6 95 -15z"/>
<path d="M621 620 c-26 -22 -53 -25 -82 -10 -15 9 -21 7 -26 -6 -8 -21 13 -34
58 -34 39 0 89 31 89 56 0 19 -10 17 -39 -6z"/>
<path d="M231 611 c-54 -19 -101 -55 -88 -67 4 -4 30 5 57 20 93 51 192 45
284 -15 47 -32 106 -115 106 -151 0 -10 7 -18 15 -18 22 0 18 34 -9 88 -67
131 -225 193 -365 143z"/>
<path d="M720 555 c0 -8 7 -15 15 -15 8 0 15 7 15 15 0 8 -7 15 -15 15 -8 0
-15 -7 -15 -15z"/>
<path d="M223 545 c-20 -8 -35 -23 -39 -39 -3 -15 -15 -27 -31 -30 -44 -12
-72 -111 -39 -144 14 -15 14 -17 -1 -34 -25 -28 -2 -96 37 -111 17 -6 31 -21
35 -35 8 -33 58 -51 140 -50 49 0 75 5 87 15 14 13 20 13 33 3 25 -21 18 -29
-42 -46 -126 -37 -252 19 -316 140 -16 31 -22 58 -22 116 0 64 4 82 29 128 33
58 27 82 -10 39 -34 -40 -58 -129 -51 -195 21 -202 233 -326 419 -245 42 19
44 19 87 0 93 -40 224 -28 288 27 43 37 19 43 -39 10 -46 -25 -64 -29 -128
-29 -58 0 -85 6 -116 22 -76 40 -132 112 -149 191 -6 28 -4 32 14 32 16 0 21
-6 21 -25 0 -44 27 -94 53 -101 16 -3 28 -15 31 -31 9 -34 57 -51 146 -51 89
0 137 17 146 51 3 15 15 28 29 31 25 6 55 60 55 100 0 20 5 26 21 26 18 0 20
-4 14 -33 -4 -17 -19 -53 -33 -80 -29 -54 -21 -75 14 -34 24 28 54 113 54 152
0 20 -7 23 -77 29 -42 3 -137 6 -211 6 -117 0 -133 2 -122 15 23 28 -17 115
-54 115 -8 0 -17 11 -20 24 -3 14 -20 30 -38 39 -42 19 -171 20 -215 2z m81
-68 c-9 -59 -17 -63 -52 -26 -35 37 -33 45 12 64 41 18 47 12 40 -38z m104 42
c42 -14 46 -33 16 -69 -43 -51 -74 -37 -74 34 0 48 7 53 58 35z m96 -85 c9 -8
16 -29 16 -45 0 -30 -1 -30 -47 -27 -42 3 -48 6 -45 23 3 17 45 65 57 65 2 0
11 -7 19 -16z m-297 -26 c34 -32 29 -48 -15 -48 -48 0 -53 5 -40 41 12 35 24
36 55 7z m157 -56 c-1 -7 -2 -23 -2 -37 -2 -30 -12 -31 -43 -5 l-24 20 24 20
c25 21 47 22 45 2z m491 -52 c10 -15 -14 -77 -31 -84 -10 -4 -34 12 -67 44
l-52 50 72 0 c39 0 75 -5 78 -10z m-625 -12 c0 -16 -40 -58 -56 -58 -13 0 -36
55 -27 64 12 11 83 6 83 -6z m330 0 c0 -16 -40 -58 -56 -58 -13 0 -36 55 -27
64 12 11 83 6 83 -6z m196 -90 c13 -25 12 -28 -8 -42 -40 -28 -58 -21 -58 23
0 21 -3 54 -6 72 l-7 34 33 -30 c17 -16 38 -42 46 -57z m-456 -6 c0 -48 -5
-53 -41 -40 -35 12 -36 24 -7 55 32 34 48 29 48 -15z m89 -1 c20 -38 20 -39 1
-44 -10 -3 -21 -2 -24 1 -7 7 -8 82 -1 82 2 0 14 -18 24 -39z m241 1 c0 -48
-5 -53 -41 -40 -35 12 -36 24 -7 55 32 34 48 29 48 -15z"/>
<path d="M680 510 c0 -5 5 -10 10 -10 6 0 10 5 10 10 0 6 -4 10 -10 10 -5 0
-10 -4 -10 -10z"/>
<path d="M735 501 c-7 -12 12 -24 25 -16 11 7 4 25 -10 25 -5 0 -11 -4 -15 -9z"/>
</g>
</svg>
